<svg xmlns="http://www.w3.org/2000/svg" aria-hidden="true" style="position:absolute;width:0;height:0;overflow:hidden">
  <defs>
    <symbol id="icon-customer6" viewBox="0 0 32 32">
      <path fill="#afb1b8" d="M16.145 15.628c-.151-.201-.223-.438-.206-.677v-.982c0-.301.068-.53.205-.686s.371-.234.703-.234c.312 0 .534.067.665.2.143.17.213.378.197.587v.231h-.559v-.234c.002-.076-.003-.153-.016-.229-.008-.052-.036-.1-.08-.136-.057-.039-.13-.058-.202-.053-.077-.005-.152.015-.213.056-.049.04-.081.093-.093.15-.016.08-.023.161-.022.243v1.191c-.009.115.016.23.072.335.028.035.066.063.111.081s.095.024.144.019c.072.005.143-.014.198-.054.046-.039.075-.09.083-.145.013-.079.019-.159.017-.239v-.242h.559v.221c.016.218-.052.435-.193.617-.128.146-.347.219-.668.219s-.564-.078-.702-.24zM18.47 15.638c-.141-.153-.212-.375-.212-.67v-1.032c0-.292.071-.512.212-.662s.377-.224.708-.224c.328 0 .563.075.704.224s.213.37.213.662v1.032c0 .292-.072.515-.215.669s-.377.231-.702.231c-.325 0-.566-.078-.708-.23zm.968-.247c.051-.096.074-.2.067-.306v-1.264c.006-.103-.016-.206-.066-.3-.028-.036-.068-.065-.114-.082s-.097-.024-.147-.018c-.05-.006-.101 0-.148.018s-.086.046-.115.082c-.051.093-.074.196-.067.3v1.27c-.007.105.016.21.067.306.033.032.073.058.118.076s.094.027.144.027c.049 0 .098-.009.144-.027s.085-.043.118-.076v-.006zM20.767 13.08h.601l.452 1.905.463-1.905h.585l.059 2.749h-.433l-.046-1.911-.446 1.911h-.347l-.463-1.918-.043 1.918h-.437l.054-2.749zM23.602 13.08h.937c.54 0 .81.26.81.781 0 .499-.284.747-.852.747h-.319v1.222H23.6l.003-2.749zm.8 1.175c.057.006.115.002.17-.013s.105-.04.148-.074c.066-.093.096-.202.083-.31.003-.084-.006-.168-.028-.25-.008-.027-.023-.053-.043-.075s-.045-.041-.073-.055c-.08-.033-.169-.048-.258-.044h-.224v.822h.224zM26.182 13.08h.621l.637 2.749h-.539l-.126-.634h-.554l-.13.634h-.547l.637-2.749zm.531 1.797-.216-1.154-.216 1.154h.433zM27.955 13.08h.405l.775 1.568V13.08h.48v2.749h-.385l-.779-1.637v1.637h-.496l.001-2.749zM30.739 14.782l-.644-1.697h.542l.393 1.09.369-1.09h.531l-.636 1.697v1.048h-.555v-1.048zM17.038 17.032v.144h-.472v1.117h-.198v-1.117h-.474v-.144h1.144zM18.517 18.293h-.153c-.015.001-.031-.003-.043-.012-.012-.007-.02-.017-.025-.029l-.136-.3h-.655l-.136.3c-.004.013-.011.024-.021.034-.012.008-.027.013-.043.012h-.153l.578-1.261h.201l.585 1.256zm-.958-.468h.546l-.231-.513c-.017-.039-.031-.078-.043-.119-.008.024-.015.047-.022.067l-.021.053-.229.512zM19.514 18.169c.036.002.073.002.109 0 .031-.003.062-.008.093-.015.028-.006.056-.014.083-.023.025-.009.051-.02.077-.031v-.284h-.231c-.006 0-.011 0-.017-.002s-.01-.004-.014-.008c-.004-.003-.007-.006-.009-.01s-.003-.008-.003-.013v-.097h.449v.483c-.037.023-.075.043-.116.06s-.084.032-.128.043c-.047.012-.096.021-.145.026-.056.005-.112.008-.169.008-.1.001-.199-.015-.291-.047-.087-.03-.165-.075-.231-.132-.064-.058-.115-.125-.149-.2-.036-.084-.055-.172-.053-.262-.001-.09.016-.179.052-.264.033-.075.084-.143.149-.2s.145-.101.231-.131c.099-.032.204-.048.31-.047.054 0 .108.004.161.011.047.007.093.017.138.032.04.013.079.03.116.05.035.02.069.042.101.066l-.056.078c-.004.007-.011.013-.019.017s-.017.007-.026.007c-.013 0-.025-.004-.036-.01-.017-.008-.036-.018-.057-.03-.025-.013-.051-.025-.077-.034-.034-.012-.07-.021-.106-.028-.048-.008-.098-.011-.147-.011-.076-.001-.152.011-.223.035-.064.022-.122.056-.17.1-.048.045-.085.099-.108.157-.052.137-.052.284 0 .42.025.059.065.113.116.159.047.043.105.077.169.1.074.022.151.03.229.025zM21.357 18.149h.631v.144h-.825v-1.261h.198l-.005 1.117zM22.645 18.293h-.198v-1.261h.198v1.261zM23.381 17.038c.012.006.022.014.03.023l.845.951c-.001-.015-.001-.03 0-.045V17.027h.172v1.266h-.099c-.015.001-.029-.001-.043-.007-.012-.006-.023-.014-.031-.024l-.844-.95v.981h-.165v-1.261h.103c.011 0 .022.002.032.006zM25.885 17.032v.139h-.701v.416h.568v.134h-.568v.43h.701v.139h-.904v-1.258h.904zM5.161 9.244l8.781 2.153v7.543l-8.781-2.152V9.244zm-.563-.643v8.554l9.907 2.429v-8.553l-9.907-2.43z" style="fill:var(--color1, #afb1b8)"/>
      <path fill="#afb1b8" d="M9.908 23.555 0 21.124v-8.553l9.908 2.43v8.554z" style="fill:var(--color1, #afb1b8)"/>
      <path fill="#afb1b8" d="m4.762 9.148 8.667 2.126-3.686 3.183-8.668-2.127 3.687-3.182zm-.164-.547L0 12.571l9.908 2.43 4.597-3.97-9.907-2.43zM10.465 23.074l4.04-3.488-4.04-.991v4.48z" style="fill:var(--color1, #afb1b8)"/>
    </symbol>
    <symbol id="icon-customer5" viewBox="0 0 32 32">
      <path fill="#afb1b8" d="M2.416 23.738c.124.14.19.316.186.496.006.118-.016.235-.066.344s-.126.205-.222.283c-.24.166-.538.248-.839.229H0v-3.145h1.445c.285-.017.568.056.8.209.093.072.167.162.216.264s.071.213.064.324c.008.173-.051.344-.168.481-.112.125-.267.212-.44.246.196.033.372.128.498.269zm-1.73-.474h.617c.14.009.28-.028.393-.104.046-.038.082-.086.105-.139s.032-.111.027-.168c.004-.057-.005-.114-.028-.167s-.058-.101-.103-.14c-.116-.079-.26-.117-.404-.106H.686v.825zm1.071 1.206c.05-.039.089-.089.114-.144s.036-.115.032-.175c.004-.061-.008-.121-.034-.177s-.065-.106-.116-.145c-.121-.082-.269-.122-.419-.114H.686v.865h.656c.148.008.294-.031.414-.109zM5.369 25.09l-.804-1.229h-.302v1.229h-.691v-3.145h1.309c.33-.021.656.075.911.267.183.171.293.396.311.634s-.058.475-.214.667c-.161.169-.382.282-.624.32l.856 1.257h-.752zm-1.105-1.657h.565c.393 0 .589-.159.589-.476.004-.065-.007-.13-.032-.191s-.063-.116-.113-.163c-.124-.094-.284-.14-.445-.128h-.572l.007.957zM9.148 24.457H7.77l-.243.633h-.725l1.265-3.11h.784l1.26 3.11h-.725l-.238-.633zm-.185-.476-.503-1.327-.503 1.327h1.007zM13.878 25.09h-.686l-1.539-2.139v2.139h-.685v-3.145h.685l1.539 2.151v-2.151h.686v3.145zM17.794 24.338c-.142.237-.358.431-.621.555-.299.138-.63.206-.965.198h-1.222v-3.145h1.222c.334-.008.665.058.965.194.263.121.479.312.621.548.141.256.215.538.215.825s-.074.569-.215.825zm-.785-.076c.196-.209.304-.475.304-.751s-.108-.542-.304-.75c-.237-.189-.545-.285-.859-.267h-.476v2.036h.476c.314.018.622-.078.859-.267zM9.578 4.453s8.858 3.062 8.67 7.493v7.494s-8.851-3.063-8.666-7.494l-.003-7.493zM26.139 17.685c1.673-1.054 3.608-1.707 5.628-1.899V13.44c-2.327.821-4.302 2.311-5.628 4.245z" style="fill:var(--color1, #afb1b8)"/>
      <path fill="#afb1b8" d="M25.134 18.392c1.369-2.524 3.743-4.472 6.633-5.443v-6.76S19.152 10.551 19.419 16.86v10.67s.562-.195 1.446-.561c0-.341 0-.685.04-1.031.261-2.929 1.782-5.644 4.228-7.546z" style="fill:var(--color1, #afb1b8)"/>
      <path fill="#afb1b8" d="M23.934 22.356c.066-.74.214-1.472.441-2.185-1.523 1.643-2.446 3.682-2.638 5.83-.018.203-.029.406-.034.615.716-.315 1.55-.708 2.426-1.171-.224-1.016-.29-2.056-.196-3.09zM24.436 22.394c-.084.935-.032 1.876.156 2.798 3.446-1.888 7.319-4.806 7.17-8.332v-.307c-2.462.252-4.766 1.238-6.557 2.805-.419.971-.678 1.994-.768 3.036z" style="fill:var(--color1, #afb1b8)"/>
    </symbol>
    <symbol id="icon-customer4" viewBox="0 0 32 32">
      <path fill="#afb1b8" d="M4.949 13.027h-.001c-.903 0-1.635.65-1.635 1.453v.001c0 .802.732 1.453 1.635 1.453h.001c.903 0 1.635-.65 1.635-1.453v-.001c0-.802-.732-1.453-1.635-1.453zM17.015 12.563c-.003-1.114-.502-2.182-1.388-2.97s-2.088-1.232-3.342-1.234c-1.254.002-2.457.446-3.344 1.234s-1.386 1.856-1.389 2.971v6.145s9.462-.937 9.463-6.144v-.001zM0 20.725c.002.775.35 1.518.967 2.067s1.453.857 2.325.86c.872-.002 1.708-.311 2.325-.859s.964-1.291.967-2.066v-4.276S0 17.103 0 20.726zm3.292.766c-.171 0-.337-.045-.479-.129s-.252-.204-.317-.344c-.065-.14-.082-.294-.049-.443s.115-.285.236-.392.274-.18.441-.21c.167-.03.341-.014.498.044s.292.156.387.282c.095.126.145.274.145.426 0 .101-.022.201-.065.294s-.107.178-.187.25c-.08.071-.175.128-.28.167s-.217.059-.331.059v-.003zM9.945 21.069H9.31v.656h-.331v-1.606h1.046v.268H9.31v.415h.635v.267zm1.591-.111c0 .158-.028.297-.084.416s-.136.211-.24.276c-.104.065-.223.097-.357.097-.133 0-.252-.032-.356-.096s-.185-.155-.243-.273c-.057-.119-.086-.256-.087-.41v-.079c0-.158.028-.297.085-.417s.138-.213.242-.277c.104-.065.224-.097.357-.097s.253.032.356.097c.104.064.185.156.242.277s.086.258.086.416v.072zm-.335-.072c0-.168-.03-.296-.09-.384s-.146-.131-.258-.131c-.111 0-.197.043-.257.13s-.091.212-.092.379v.078c0 .164.03.291.09.382s.147.136.26.136c.111 0 .196-.043.256-.13s.09-.215.09-.382v-.078zm1.408.418c0-.063-.022-.11-.066-.143s-.124-.069-.238-.106c-.115-.038-.206-.074-.272-.11-.182-.099-.274-.231-.274-.398 0-.087.024-.164.073-.232s.12-.122.211-.16c.092-.038.195-.057.309-.057s.217.021.307.063c.09.041.159.1.208.175s.075.162.075.258h-.331c0-.074-.023-.131-.069-.171s-.111-.062-.195-.062c-.081 0-.144.017-.189.052s-.067.079-.067.135c0 .052.026.096.078.131s.131.068.233.099c.188.057.325.127.411.211s.129.188.129.313c0 .139-.053.248-.158.328s-.247.118-.425.118c-.124 0-.236-.022-.338-.067s-.179-.108-.233-.186c-.053-.079-.079-.17-.079-.274h.332c0 .177.106.266.318.266.079 0 .14-.016.184-.047s.066-.077.066-.135zm1.766-.917h-.492v1.338h-.331v-1.338h-.485v-.268h1.308v.268zm1.156.642h-.635v.43h.746v.266h-1.076v-1.606h1.074v.268h-.743v.383h.635v.259zm.899.108h-.264v.588h-.331v-1.606h.597c.19 0 .336.042.439.127s.154.204.154.358c0 .11-.024.201-.072.275s-.119.131-.215.174l.347.656v.015h-.355l-.301-.588zm-.264-.268h.267c.083 0 .147-.021.193-.063s.068-.101.068-.175c0-.076-.022-.135-.065-.179s-.108-.065-.197-.065h-.266v.482zm2.005.29v.566h-.331v-1.606h.626c.121 0 .227.022.318.066s.163.107.212.189c.049.081.074.173.074.277 0 .157-.054.282-.162.373s-.256.136-.447.136h-.29zm0-.268h.296c.088 0 .154-.021.2-.062s.07-.1.07-.176c0-.079-.023-.142-.07-.191s-.11-.074-.192-.075h-.303v.504zm2.094.138h-.635v.43h.746v.266H19.3v-1.606h1.074v.268h-.743v.383h.635v.259zm1.535-.642h-.492v1.338h-.331v-1.338h-.485v-.268H21.8v.268zm1.156.642h-.635v.43h.746v.266h-1.076v-1.606h1.074v.268h-.743v.383h.635v.259zm.899.108h-.264v.588h-.331v-1.606h.597c.19 0 .336.042.439.127s.154.204.154.358c0 .11-.024.201-.072.275s-.119.131-.215.174l.347.656v.015h-.355l-.301-.588zm-.264-.268h.267c.083 0 .147-.021.193-.063s.068-.101.068-.175c0-.076-.022-.135-.065-.179s-.108-.065-.197-.065h-.266v.482zm1.945.435c0-.063-.022-.11-.066-.143s-.124-.069-.238-.106c-.115-.038-.206-.074-.272-.11-.182-.099-.274-.231-.274-.398 0-.087.024-.164.073-.232s.119-.122.211-.16c.092-.038.195-.057.309-.057s.217.021.307.063c.09.041.159.1.208.175s.075.162.075.258h-.331c0-.074-.023-.131-.069-.171s-.111-.062-.195-.062c-.081 0-.144.017-.189.052s-.067.079-.067.135c0 .052.026.096.078.131s.131.068.233.099c.188.057.325.127.411.211s.129.188.129.313c0 .139-.053.248-.158.328s-.247.118-.425.118c-.124 0-.236-.022-.337-.067s-.179-.108-.233-.186c-.053-.079-.079-.17-.079-.274h.332c0 .177.106.266.318.266.079 0 .14-.016.184-.047s.066-.077.066-.135z" style="fill:var(--color1, #afb1b8)"/>
    </symbol>
    <symbol id="icon-customer2" viewBox="0 0 32 32">
      <path fill="#afb1b8" d="M14.257 2.202h-.082c-.127-.008-.254-.011-.38-.014h-.275c-.24 0-.484.006-.727.018-.018-.001-.037-.001-.055 0-2.2.125-4.356.675-6.349 1.62l-.261.126V17.32l.611-.207c.536-.184 1.107-.35 1.698-.504 1.598-.41 3.239-.628 4.888-.649v1.756c-.218.002-.431.008-.643.018h-.05c-1.269.07-2.528.263-3.76.577-1.56.391-3.065.977-4.48 1.746V2.912c1.469-.857 3.051-1.5 4.7-1.911C10.539.627 12.027.435 13.521.43h.258c.309.008.609.022.892.043.744.052 1.483.17 2.207.352v1.729c-.703-.164-1.418-.272-2.138-.322-.015-.001-.029-.002-.044-.004-.149-.013-.298-.025-.437-.025zM17.3 3.97c.383.029.78.043 1.182.043 1.571-.006 3.135-.206 4.657-.597 1.559-.392 3.064-.979 4.478-1.747v16.84c-1.47.856-3.053 1.5-4.701 1.912-1.448.372-2.935.564-4.429.57-1.132.009-2.261-.124-3.36-.396V3.646c.26.06.527.115.799.161.446.075.916.131 1.375.164zm8.57.13-.611.206c-.562.189-1.129.358-1.698.508-1.659.426-3.363.645-5.075.651-.399 0-.765-.011-1.12-.034l-.487-.032v13.752l.418.037c.388.034.788.051 1.191.051 1.349-.006 2.691-.18 3.997-.517 1.075-.27 2.122-.646 3.123-1.122l.261-.126V4.101zM5.577 25.917c-.088-.091-.194-.163-.311-.21s-.243-.069-.369-.065c-.134-.002-.268.023-.393.074-.114.046-.218.114-.305.201s-.153.192-.197.307c-.048.121-.072.249-.07.379v2.291c-.005.161.025.322.09.47.054.117.132.222.229.307.092.077.199.133.315.163.111.031.226.047.342.048.128.001.254-.026.37-.08.114-.05.218-.122.305-.212.085-.089.153-.193.2-.307.049-.116.074-.24.073-.365v-.256h-.599v.204c.002.07-.01.139-.035.204-.019.049-.049.093-.087.129-.037.03-.08.052-.125.066-.04.013-.083.021-.125.021-.053.006-.108-.002-.157-.023s-.092-.056-.124-.099c-.056-.092-.084-.199-.079-.307v-2.136c-.004-.118.021-.236.073-.342.031-.048.075-.087.127-.111s.109-.034.166-.027c.052-.002.103.009.149.031s.087.056.118.098c.067.088.102.196.099.307v.198h.593v-.233c.001-.137-.024-.273-.073-.401-.044-.12-.112-.23-.2-.322zM9.134 25.891c-.191-.161-.432-.25-.681-.252-.122.001-.243.022-.357.064-.116.042-.224.105-.316.187-.099.089-.178.199-.232.321-.06.14-.09.291-.087.444v2.197c-.004.155.026.308.087.45.054.118.133.223.232.307.092.085.199.151.316.193.115.042.235.064.357.064s.243-.022.357-.064c.119-.043.229-.109.324-.193.095-.086.172-.19.226-.307.061-.142.091-.295.087-.45v-2.197c.003-.152-.027-.304-.087-.444-.053-.121-.13-.23-.226-.321zm-.279 2.962c.005.059-.003.117-.024.172s-.053.105-.095.145c-.079.066-.179.103-.282.103s-.203-.036-.282-.103c-.042-.041-.075-.09-.095-.145s-.029-.114-.024-.172v-2.197c-.005-.059.003-.117.024-.172s.053-.105.095-.145c.079-.066.179-.103.282-.103s.203.036.282.103c.042.041.075.09.095.145s.029.114.024.172v2.197zM13.807 29.834v-4.159h-.576l-.756 2.202h-.011l-.762-2.202h-.57v4.159h.594v-2.53h.011l.582 1.789h.296l.586-1.789h.011v2.53h.594zM17.182 25.966c-.092-.103-.207-.181-.336-.227-.139-.045-.285-.067-.431-.064h-.883v4.159h.593V28.21h.305c.185.008.369-.031.535-.114.135-.075.247-.185.325-.318.069-.111.115-.234.136-.362.023-.157.034-.315.032-.473.006-.2-.014-.399-.058-.594-.04-.144-.115-.275-.218-.382zm-.305 1.269c-.003.075-.021.149-.055.216-.034.064-.087.115-.153.146-.088.039-.184.057-.28.052h-.27v-1.414h.305c.092-.005.184.013.267.052.061.035.11.089.139.154.032.073.05.152.052.232v.276c0 .096.006.197 0 .286h-.006zM19.99 25.675h-.486l-.916 4.159h.593l.174-.894h.808l.174.894h.593l-.939-4.159zm-.547 2.699.292-1.508h.011l.29 1.508h-.593zM23.819 28.18h-.011l-.895-2.506h-.57v4.159h.593v-2.501h.012l.906 2.501h.557v-4.159h-.593v2.506zM27.44 25.675l-.477 1.654h-.012l-.477-1.654h-.628l.814 2.401v1.758h.593v-1.758l.814-2.401h-.628zM3.925 31.008h.286v.801h.194v-.801h.284v-.164h-.764v.164zM6.326 30.844l-.374.966h.206l.079-.22h.385l.082.22h.211l-.383-.966h-.206zm-.031.584.131-.358.131.358h-.263zM8.699 31.454h.223v.124c-.065.052-.146.081-.229.081-.039.002-.078-.005-.113-.021s-.067-.04-.091-.071c-.051-.073-.076-.162-.072-.252 0-.215.093-.322.278-.322.049-.005.097.008.137.036s.069.07.081.117l.191-.037c-.041-.189-.177-.284-.409-.284-.124-.003-.245.041-.338.124-.049.048-.086.106-.11.17s-.034.133-.029.201c-.006.132.039.262.124.362.047.049.105.087.168.111s.131.035.199.03c.151.004.298-.051.409-.153v-.381H8.7v.163zM11.123 30.844h-.196v.966h.677v-.164h-.481v-.801zM13.173 30.844h-.196v.966h.195v-.966zM15.177 31.489l-.396-.645h-.189v.966h.182v-.631l.388.631h.194v-.966h-.179v.645zM16.988 31.385h.481v-.164h-.481v-.212h.518v-.164h-.713v.966h.733v-.164h-.538v-.261zM21.381 31.225h-.38v-.381h-.194v.966h.194v-.422h.38v.422h.194v-.966h-.194v.381zM23.203 31.385h.483v-.164h-.483v-.212h.519v-.164h-.713v.966h.732v-.164h-.538v-.261zM25.674 31.385c.168-.026.254-.115.254-.269.005-.041-.001-.083-.018-.12s-.043-.07-.077-.094c-.087-.044-.185-.064-.283-.057h-.409v.966h.194v-.404h.038c.041-.003.083.005.121.021.028.017.052.042.069.071l.211.307h.232l-.118-.189c-.052-.093-.125-.173-.214-.232zm-.195-.134h-.144v-.243h.153c.067-.005.134.002.197.023.014.012.025.028.033.045s.011.036.01.055c-.001.019-.006.037-.015.054s-.021.031-.037.042c-.064.02-.131.027-.197.023zM27.538 31.385h.481v-.164h-.481v-.212h.519v-.164h-.715v.966h.733v-.164h-.538v-.261z" style="fill:var(--color1, #afb1b8)"/>
    </symbol>
    <symbol id="icon-customer3" viewBox="0 0 32 32">
      <path fill="#afb1b8" d="M5.267 30.294c.011 0 .022.003.033.007s.02.01.027.017l.155.148c-.12.12-.269.216-.436.281-.196.071-.406.106-.618.101-.199.004-.397-.029-.582-.094-.166-.06-.316-.151-.438-.266-.125-.119-.221-.259-.283-.411-.068-.17-.101-.348-.099-.527-.003-.181.033-.36.107-.529.068-.153.17-.293.301-.411.132-.116.291-.207.465-.268.191-.064.394-.096.599-.094.19-.004.379.025.556.086.154.058.295.138.417.238l-.13.158c-.009.011-.02.021-.033.029-.015.009-.034.013-.052.012-.02-.001-.04-.007-.056-.017l-.07-.042-.097-.054c-.042-.02-.085-.037-.13-.052-.058-.018-.117-.032-.176-.042-.076-.012-.153-.018-.231-.017-.147-.002-.294.022-.43.071-.127.045-.242.113-.337.199-.097.092-.171.2-.219.317-.055.134-.082.276-.079.418-.002.145.025.288.079.425.047.116.12.223.215.315.089.086.199.152.322.195.127.046.262.068.399.067.079.001.158-.003.237-.013.128-.014.25-.052.359-.113.054-.031.106-.066.153-.104.02-.017.046-.026.074-.027zM9.745 29.549c.002.179-.033.356-.105.524-.063.152-.163.291-.292.407s-.286.207-.458.267c-.38.126-.799.126-1.179 0-.172-.061-.327-.152-.456-.268-.129-.118-.229-.258-.295-.411-.14-.339-.14-.71 0-1.05.066-.153.166-.293.295-.413.13-.112.285-.2.456-.258.379-.128.8-.128 1.179 0 .172.061.328.152.458.268.128.117.227.255.293.406.072.169.107.347.105.527zm-.407 0c.003-.143-.022-.285-.074-.421-.043-.116-.114-.224-.207-.315-.091-.087-.203-.154-.328-.199-.276-.092-.581-.092-.857 0-.125.044-.237.112-.328.199-.095.091-.166.198-.209.315-.099.274-.099.568 0 .842.044.117.115.224.209.315.091.086.203.153.328.197.276.09.581.09.857 0 .125-.044.237-.111.328-.197.093-.092.164-.199.207-.315.052-.136.077-.278.074-.421zM12.801 29.991l.041.094c.015-.034.029-.064.045-.094.015-.032.032-.063.05-.093l.991-1.565c.019-.027.037-.044.056-.049.026-.007.054-.01.081-.008h.293v2.545h-.347v-1.95c-.002-.029-.002-.058 0-.088l-.997 1.587c-.013.024-.033.044-.058.058s-.055.021-.085.021h-.056c-.03 0-.06-.007-.085-.021s-.046-.034-.058-.058l-1.026-1.597v2.043h-.335v-2.54h.293c.027-.001.055.001.081.008.024.01.043.028.054.049l1.012 1.567c.02.029.037.059.05.091zM16.529 29.864v.953h-.388v-2.542h.865c.163-.003.326.016.483.056.125.031.242.085.341.158.086.069.153.154.194.249.046.104.068.214.066.325.002.111-.023.222-.072.325-.047.098-.118.185-.209.254-.099.076-.216.134-.343.168-.151.042-.309.062-.467.059l-.469-.007zm0-.272h.469c.102.001.203-.012.3-.039.08-.023.154-.061.217-.11.058-.047.103-.104.132-.168.032-.068.048-.141.047-.214.005-.071-.009-.141-.039-.207s-.076-.125-.136-.174c-.148-.1-.334-.149-.522-.136h-.469v1.048zM21.741 30.821h-.306c-.031.001-.061-.007-.085-.024-.022-.016-.039-.036-.05-.059l-.264-.615h-1.324l-.273.615c-.01.022-.027.042-.048.057-.025.017-.056.026-.087.025h-.306l1.163-2.546h.403l1.179 2.546zm-1.92-.945h1.093l-.461-1.036c-.035-.078-.064-.158-.087-.239l-.045.133c-.014.04-.029.078-.043.108l-.458 1.034zM23.416 28.288c.023.011.043.027.058.045l1.696 1.919v-1.976h.347v2.545h-.194c-.028.001-.055-.004-.079-.015-.024-.012-.045-.028-.062-.047l-1.695-1.917c.002.029.002.058 0 .088v1.891h-.347v-2.545h.206c.024-.001.048.003.07.012zM28.376 29.809v1.011h-.388v-1.011l-1.072-1.533h.347c.03-.002.059.006.083.022.021.016.039.036.052.057l.671.989c.027.042.05.081.07.118s.035.072.048.108l.05-.11c.019-.04.041-.079.066-.116l.661-.996c.014-.02.031-.038.05-.054.023-.017.053-.027.083-.025h.351l-1.074 1.54zM12.609 24.004c.169.019.339.034.512.047 2.616-1.017 4.829-2.681 6.363-4.785s2.319-4.553 2.259-7.043L18.86 9.718c.586 2.651.312 5.39-.792 7.913s-2.994 4.729-5.459 6.372z" style="fill:var(--color1, #afb1b8)"/>
      <path fill="#afb1b8" d="m11.58 23.888.078.013c2.634-1.637 4.642-3.923 5.765-6.562s1.308-5.51.533-8.242L13.85 5.529c1.661 2.933 2.329 6.215 1.928 9.464s-1.857 6.334-4.196 8.893zM25.506 15.165c-.698 2.735-2.392 5.202-4.832 7.035-.712.538-1.481 1.017-2.296 1.432 1.986-.507 3.812-1.404 5.337-2.621s2.707-2.723 3.456-4.4l-1.666-1.445z" style="fill:var(--color1, #afb1b8)"/>
      <path fill="#afb1b8" d="m24.853 14.763-2.371-2.06c-.045 2.349-.814 4.644-2.226 6.648s-3.416 3.642-5.803 4.745h.012c.532 0 1.064-.028 1.592-.083 2.231-.791 4.202-2.05 5.737-3.664s2.586-3.533 3.06-5.586zM11.923 4.026 9.094 1.565c-2.529.849-4.704 2.342-6.24 4.282S.492 10.086.484 12.442c.009 2.603 1.018 5.128 2.865 7.177s4.429 3.504 7.335 4.135c2.594-2.746 4.113-6.14 4.336-9.688s-.862-7.065-3.097-10.04zM31.388 14.384c-.01-3.088-1.427-6.047-3.94-8.23s-5.919-3.414-9.473-3.423c-1.642-.001-3.271.262-4.803.777l17.32 15.048c.593-1.33.897-2.744.896-4.171z" style="fill:var(--color1, #afb1b8)"/>
    </symbol>
    <symbol id="icon-customer1" viewBox="0 0 32 32">
      <path fill="#afb1b8" d="M14.257 2.202h-.082c-.127-.008-.254-.011-.38-.014h-.275c-.24 0-.484.006-.727.018-.018-.001-.037-.001-.055 0-2.2.125-4.356.675-6.349 1.62l-.261.126V17.32l.611-.207c.536-.184 1.107-.35 1.698-.504 1.598-.41 3.239-.628 4.888-.649v1.756c-.218.002-.431.008-.643.018h-.05c-1.269.07-2.528.263-3.76.577-1.56.391-3.065.977-4.48 1.746V2.912c1.469-.857 3.051-1.5 4.7-1.911C10.539.627 12.027.435 13.521.43h.258c.309.008.609.022.892.043.744.052 1.483.17 2.207.352v1.729c-.703-.164-1.418-.272-2.138-.322-.015-.001-.029-.002-.044-.004-.149-.013-.298-.025-.437-.025zM17.3 3.97c.383.029.78.043 1.182.043 1.571-.006 3.135-.206 4.657-.597 1.559-.392 3.064-.979 4.478-1.747v16.84c-1.47.856-3.053 1.5-4.701 1.912-1.448.372-2.935.564-4.429.57-1.132.009-2.261-.124-3.36-.396V3.646c.26.06.527.115.799.161.446.075.916.131 1.375.164zm8.57.13-.611.206c-.562.189-1.129.358-1.698.508-1.659.426-3.363.645-5.075.651-.399 0-.765-.011-1.12-.034l-.487-.032v13.752l.418.037c.388.034.788.051 1.191.051 1.349-.006 2.691-.18 3.997-.517 1.075-.27 2.122-.646 3.123-1.122l.261-.126V4.101zM5.577 25.917c-.088-.091-.194-.163-.311-.21s-.243-.069-.369-.065c-.134-.002-.268.023-.393.074-.114.046-.218.114-.305.201s-.153.192-.197.307c-.048.121-.072.249-.07.379v2.291c-.005.161.025.322.09.47.054.117.132.222.229.307.092.077.199.133.315.163.111.031.226.047.342.048.128.001.254-.026.37-.08.114-.05.218-.122.305-.212.085-.089.153-.193.2-.307.049-.116.074-.24.073-.365v-.256h-.599v.204c.002.07-.01.139-.035.204-.019.049-.049.093-.087.129-.037.03-.08.052-.125.066-.04.013-.083.021-.125.021-.053.006-.108-.002-.157-.023s-.092-.056-.124-.099c-.056-.092-.084-.199-.079-.307v-2.136c-.004-.118.021-.236.073-.342.031-.048.075-.087.127-.111s.109-.034.166-.027c.052-.002.103.009.149.031s.087.056.118.098c.067.088.102.196.099.307v.198h.593v-.233c.001-.137-.024-.273-.073-.401-.044-.12-.112-.23-.2-.322zM9.134 25.891c-.191-.161-.432-.25-.681-.252-.122.001-.243.022-.357.064-.116.042-.224.105-.316.187-.099.089-.178.199-.232.321-.06.14-.09.291-.087.444v2.197c-.004.155.026.308.087.45.054.118.133.223.232.307.092.085.199.151.316.193.115.042.235.064.357.064s.243-.022.357-.064c.119-.043.229-.109.324-.193.095-.086.172-.19.226-.307.061-.142.091-.295.087-.45v-2.197c.003-.152-.027-.304-.087-.444-.053-.121-.13-.23-.226-.321zm-.279 2.962c.005.059-.003.117-.024.172s-.053.105-.095.145c-.079.066-.179.103-.282.103s-.203-.036-.282-.103c-.042-.041-.075-.09-.095-.145s-.029-.114-.024-.172v-2.197c-.005-.059.003-.117.024-.172s.053-.105.095-.145c.079-.066.179-.103.282-.103s.203.036.282.103c.042.041.075.09.095.145s.029.114.024.172v2.197zM13.807 29.834v-4.159h-.576l-.756 2.202h-.011l-.762-2.202h-.57v4.159h.594v-2.53h.011l.582 1.789h.296l.586-1.789h.011v2.53h.594zM17.182 25.966c-.092-.103-.207-.181-.336-.227-.139-.045-.285-.067-.431-.064h-.883v4.159h.593V28.21h.305c.185.008.369-.031.535-.114.135-.075.247-.185.325-.318.069-.111.115-.234.136-.362.023-.157.034-.315.032-.473.006-.2-.014-.399-.058-.594-.04-.144-.115-.275-.218-.382zm-.305 1.269c-.003.075-.021.149-.055.216-.034.064-.087.115-.153.146-.088.039-.184.057-.28.052h-.27v-1.414h.305c.092-.005.184.013.267.052.061.035.11.089.139.154.032.073.05.152.052.232v.276c0 .096.006.197 0 .286h-.006zM19.99 25.675h-.486l-.916 4.159h.593l.174-.894h.808l.174.894h.593l-.939-4.159zm-.547 2.699.292-1.508h.011l.29 1.508h-.593zM23.819 28.18h-.011l-.895-2.506h-.57v4.159h.593v-2.501h.012l.906 2.501h.557v-4.159h-.593v2.506zM27.44 25.675l-.477 1.654h-.012l-.477-1.654h-.628l.814 2.401v1.758h.593v-1.758l.814-2.401h-.628zM3.925 31.008h.286v.801h.194v-.801h.284v-.164h-.764v.164zM6.326 30.844l-.374.966h.206l.079-.22h.385l.082.22h.211l-.383-.966h-.206zm-.031.584.131-.358.131.358h-.263zM8.699 31.454h.223v.124c-.065.052-.146.081-.229.081-.039.002-.078-.005-.113-.021s-.067-.04-.091-.071c-.051-.073-.076-.162-.072-.252 0-.215.093-.322.278-.322.049-.005.097.008.137.036s.069.07.081.117l.191-.037c-.041-.189-.177-.284-.409-.284-.124-.003-.245.041-.338.124-.049.048-.086.106-.11.17s-.034.133-.029.201c-.006.132.039.262.124.362.047.049.105.087.168.111s.131.035.199.03c.151.004.298-.051.409-.153v-.381H8.7v.163zM11.123 30.844h-.196v.966h.677v-.164h-.481v-.801zM13.173 30.844h-.196v.966h.195v-.966zM15.177 31.489l-.396-.645h-.189v.966h.182v-.631l.388.631h.194v-.966h-.179v.645zM16.988 31.385h.481v-.164h-.481v-.212h.518v-.164h-.713v.966h.733v-.164h-.538v-.261zM21.381 31.225h-.38v-.381h-.194v.966h.194v-.422h.38v.422h.194v-.966h-.194v.381zM23.203 31.385h.483v-.164h-.483v-.212h.519v-.164h-.713v.966h.732v-.164h-.538v-.261zM25.674 31.385c.168-.026.254-.115.254-.269.005-.041-.001-.083-.018-.12s-.043-.07-.077-.094c-.087-.044-.185-.064-.283-.057h-.409v.966h.194v-.404h.038c.041-.003.083.005.121.021.028.017.052.042.069.071l.211.307h.232l-.118-.189c-.052-.093-.125-.173-.214-.232zm-.195-.134h-.144v-.243h.153c.067-.005.134.002.197.023.014.012.025.028.033.045s.011.036.01.055c-.001.019-.006.037-.015.054s-.021.031-.037.042c-.064.02-.131.027-.197.023zM27.538 31.385h.481v-.164h-.481v-.212h.519v-.164h-.715v.966h.733v-.164h-.538v-.261z" style="fill:var(--color1, #afb1b8)"/>
    </symbol>
    <symbol id="icon-linkedin1" viewBox="0 0 32 32">
      <path fill="#afb1b8" d="M31.992 32v-.001H32V20.263c0-5.741-1.236-10.164-7.948-10.164-3.227 0-5.392 1.771-6.276 3.449h-.093v-2.913h-6.364v21.364h6.627V21.42c0-2.785.528-5.479 3.977-5.479 3.399 0 3.449 3.179 3.449 5.657v10.401h6.62zM.528 10.636h6.635V32H.528V10.636zM3.843 0C1.722 0 0 1.721 0 3.843s1.721 3.879 3.843 3.879c2.121 0 3.843-1.757 3.843-3.879C7.685 1.722 5.963 0 3.843 0z" style="fill:var(--color1, #afb1b8)"/>
    </symbol>
    <symbol id="icon-facebook1" viewBox="0 0 32 32">
      <path fill="#afb1b8" d="M21.329 5.313h2.921V.225C23.746.156 22.013 0 19.994 0c-4.212 0-7.097 2.649-7.097 7.519V12H8.249v5.688h4.648V32h5.699V17.689h4.46l.708-5.688h-5.169V8.082c.001-1.644.444-2.769 2.735-2.769z" style="fill:var(--color1, #afb1b8)"/>
    </symbol>
    <symbol id="icon-twitter1" viewBox="0 0 32 32">
      <path fill="#afb1b8" d="M32 6.078c-1.19.522-2.458.868-3.78 1.036 1.36-.812 2.398-2.088 2.886-3.626-1.268.756-2.668 1.29-4.16 1.588C25.742 3.794 24.026 3 22.154 3c-3.632 0-6.556 2.948-6.556 6.562 0 .52.044 1.02.152 1.496-5.454-.266-10.28-2.88-13.522-6.862-.566.982-.898 2.106-.898 3.316 0 2.272 1.17 4.286 2.914 5.452-1.054-.02-2.088-.326-2.964-.808v.072c0 3.188 2.274 5.836 5.256 6.446-.534.146-1.116.216-1.72.216-.42 0-.844-.024-1.242-.112.85 2.598 3.262 4.508 6.13 4.57-2.232 1.746-5.066 2.798-8.134 2.798-.538 0-1.054-.024-1.57-.09C2.906 27.93 6.35 29 10.064 29c12.072 0 18.672-10 18.672-18.668 0-.29-.01-.57-.024-.848C30.014 8.56 31.108 7.406 32 6.078z" style="fill:var(--color1, #afb1b8)"/>
    </symbol>
    <symbol id="icon-instagram2" viewBox="0 0 32 32">
      <path fill="#afb1b8" d="M31.969 9.408c-.075-1.7-.35-2.869-.744-3.882-.406-1.075-1.032-2.038-1.851-2.838-.8-.813-1.769-1.444-2.832-1.844C25.523.45 24.36.175 22.66.1 20.947.019 20.403 0 16.059 0s-4.888.019-6.595.094c-1.7.075-2.869.35-3.882.744-1.075.406-2.038 1.031-2.838 1.85C1.931 3.488 1.3 4.457.9 5.52.506 6.539.231 7.702.156 9.402c-.081 1.713-.1 2.257-.1 6.601s.019 4.888.094 6.595c.075 1.7.35 2.869.744 3.882.406 1.075 1.038 2.038 1.85 2.838.8.813 1.769 1.444 2.832 1.844 1.019.394 2.182.669 3.882.744 1.706.075 2.25.094 6.595.094s4.888-.019 6.595-.094c1.7-.075 2.869-.35 3.882-.744 2.151-.832 3.851-2.532 4.682-4.682.394-1.019.669-2.182.744-3.882.075-1.707.094-2.251.094-6.595s-.006-4.888-.081-6.595zm-2.882 13.065c-.069 1.563-.331 2.407-.55 2.969-.538 1.394-1.644 2.5-3.038 3.038-.563.219-1.413.481-2.969.55-1.688.075-2.194.094-6.464.094s-4.782-.019-6.464-.094c-1.563-.069-2.407-.331-2.969-.55-.694-.256-1.325-.663-1.838-1.194-.531-.519-.938-1.144-1.194-1.838-.219-.563-.481-1.413-.55-2.969-.075-1.688-.094-2.194-.094-6.464s.019-4.782.094-6.464c.069-1.563.331-2.407.55-2.969.256-.694.663-1.325 1.2-1.838.519-.531 1.144-.938 1.838-1.194.563-.219 1.413-.481 2.969-.55 1.688-.075 2.194-.094 6.464-.094 4.276 0 4.782.019 6.464.094 1.563.069 2.407.331 2.969.55.694.256 1.325.662 1.838 1.194.531.519.938 1.144 1.194 1.838.219.563.481 1.413.55 2.969.075 1.688.094 2.194.094 6.464s-.019 4.77-.094 6.458z" style="fill:var(--color1, #afb1b8)"/>
      <path fill="#afb1b8" d="M16.059 7.783c-4.538 0-8.22 3.682-8.22 8.22s3.682 8.22 8.22 8.22c4.539 0 8.22-3.682 8.22-8.22s-3.682-8.22-8.22-8.22zm0 13.552c-2.944 0-5.332-2.388-5.332-5.332s2.388-5.332 5.332-5.332 5.332 2.388 5.332 5.332-2.388 5.332-5.332 5.332zM26.524 7.458c0 1.06-.859 1.919-1.919 1.919s-1.919-.859-1.919-1.919.859-1.919 1.919-1.919 1.919.859 1.919 1.919z" style="fill:var(--color1, #afb1b8)"/>
    </symbol>
    <symbol id="icon-Group" viewBox="0 0 32 32">
      <path d="M29.935 13.626c-.33-.445-.814-.731-1.364-.809-.552-.078-1.097.067-1.537.404l-1.437 1.102-2.178 1.626-1.558-.621c2.779-1.247 4.721-4.026 4.721-7.253 0-4.387-3.583-7.956-7.988-7.956s-7.988 3.569-7.988 7.956c0 1.59.476 3.069 1.285 4.313l-3.172-.028h-.005c-.01 0-.018.005-.027.005-.061.002-.12.015-.178.036-.015.005-.03.009-.044.015-.007.003-.015.004-.022.007l-3.71 1.832c-.001 0-.001 0-.001.001l-2.173 1.045c-.024.01-.048.024-.072.04-.866.576-1.161 1.709-.687 2.634.253.492.683.854 1.212 1.02.204.064.412.095.619.095.332 0 .662-.081.963-.242l1.593-.847 2.598-1.342 1.557-.009-6.245 6.215c-.001.001-.001.001-.002.001l-1.536 1.53c-.363.361-.562.84-.562 1.351s.2.991.562 1.353c.373.371.863.557 1.353.557s.98-.186 1.354-.557l1.508-1.502 1.998-1.491 1.034 1.029-2.022 2.013c-.001.001-.001.001-.002.001l-1.536 1.53c-.363.361-.562.84-.562 1.351s.2.991.562 1.353c.373.371.864.557 1.354.557s.981-.186 1.354-.557l3.995-3.978c.001-.001.001-.001.001-.002l1.159-1.148-.004-.004c.007-.007.018-.01.025-.018l5.928-6.493 3.983.567c.029.004.058.006.086.006.074 0 .146-.018.215-.044.02-.007.038-.017.057-.027.022-.011.045-.017.066-.031l3.687-2.448c.013-.009.021-.024.034-.034.015-.012.033-.017.046-.029l1.459-1.367c.759-.711.864-1.877.243-2.71zM4.019 17.769c-.199.107-.425.128-.641.059-.214-.067-.388-.213-.49-.411-.185-.36-.078-.798.246-1.035l1.507-.725.515 1.506-1.138.605zm4.013-2.097-1.777.918-.504-1.473 2.326-1.148-.045 1.703zm17.327-7.598c0 1.054-.252 2.048-.687 2.937l-4.798-2.179c-.05-.658-.392-1.234-.905-1.593l1.68-5.577c2.728.868 4.71 3.413 4.71 6.412zm-13.528 0c0-3.712 3.034-6.732 6.764-6.732.29 0 .574.024.855.06l-1.643 5.455c-.022-.001-.043-.007-.066-.007-1.185 0-2.149.961-2.149 2.142s.964 2.142 2.149 2.142c.797 0 1.485-.44 1.857-1.084l4.432 2.014c-1.233 1.66-3.207 2.742-5.436 2.742-3.73 0-6.764-3.02-6.764-6.732zm6.835.918c0 .506-.415.918-.925.918s-.925-.412-.925-.918.415-.918.925-.918.925.412.925.918zM4.402 26.233c-.271.269-.71.268-.98.001-.13-.13-.202-.302-.202-.485s.072-.354.202-.483l1.104-1.1.977.973-1.1 1.096zm3.688 4.285c-.271.269-.711.269-.981.001-.13-.13-.202-.302-.202-.485s.072-.354.202-.483l1.105-1.1.977.973L8.09 30.52zm3.996-3.981c-.001.001-.001.001-.002.001l-2.025 2.02-.977-.973 2.023-2.014v-.001c0-.001.001-.001.002-.001.046-.046.075-.101.103-.155.008-.016.023-.029.03-.046.019-.047.022-.098.029-.148.004-.028.016-.054.016-.083 0-.041-.015-.081-.023-.121-.007-.037-.007-.074-.021-.11-.023-.058-.063-.108-.105-.158-.012-.013-.016-.031-.029-.044h-.001c-.001 0-.001-.002-.001-.002l-1.844-1.836c-.02-.02-.045-.028-.067-.044-.032-.025-.064-.048-.1-.066-.035-.017-.07-.028-.107-.037-.039-.011-.077-.02-.118-.023-.037-.002-.072.001-.11.006-.041.005-.08.01-.119.023-.039.012-.073.031-.108.051-.023.013-.048.017-.07.033l-2.035 1.519-1.034-1.029 2.753-2.738 5.004 4.921-1.064 1.055zm7.825-8.052c-.018-.002-.034.004-.052.003-.045-.002-.087.001-.132.008-.035.006-.068.013-.101.024-.039.013-.075.032-.111.054-.034.021-.065.043-.095.07-.015.013-.032.019-.046.034l-5.391 5.905-4.967-4.885 3.251-3.234c.239-.239.241-.626.002-.866-.121-.121-.279-.18-.438-.179v-.001l-2.546.015.032-1.845 3.562.031c1.452 1.485 3.476 2.411 5.716 2.411.502 0 .991-.052 1.468-.141.046.037.091.074.149.097l2.765 1.102.175.87.204 1.016-3.446-.49zm4.637.205-.359-1.788 1.66-1.239 1.086 1.442-2.387 1.585zm4.307-3.249-.962.901-1.069-1.419.954-.731c.178-.137.403-.193.623-.164.222.031.417.147.551.326.249.335.206.802-.098 1.087z"/>
    </symbol>
    <symbol id="icon-diagram-1" viewBox="0 0 32 32">
      <path fill="#2196f3" d="M14.926 14.965h1.066v4.798h-1.066v-4.797zM19.19 17.097h1.066v2.665H19.19v-2.665zM10.661 18.696h1.066v1.066h-1.066v-1.066zM7.463 18.163h1.066v1.599H7.463v-1.599z" style="fill:var(--color2, #2196f3)"/>
      <path fill="#212121" d="M1.599 28.291h25.587c.883 0 1.599-.716 1.599-1.599V24.56c0-.883-.716-1.599-1.599-1.599h-.533V9.668L29.681 6.8c.703.346 1.553.136 2.013-.499s.396-1.508-.152-2.068-1.42-.644-2.065-.198c-.644.446-.873 1.292-.542 2.002L26.654 8.2V6.97c0-.883-.716-1.599-1.599-1.599H3.733c-.883 0-1.599.716-1.599 1.599v15.992h-.533c-.883 0-1.599.716-1.599 1.599v2.132c0 .883.716 1.599 1.599 1.599zM30.384 4.837c.294 0 .533.239.533.533s-.239.533-.533.533c-.294 0-.533-.239-.533-.533s.239-.533.533-.533zM3.198 6.969c0-.294.239-.533.533-.533h21.322c.294 0 .533.239.533.533v2.239l-1.066 1.013V8.035c0-.294-.239-.533-.533-.533H4.797c-.294 0-.533.239-.533.533v13.326c0 .294.239.533.533.533h19.19c.294 0 .533-.239.533-.533v-9.674l1.066-1.01v12.284H3.198V6.969zm4.798 6.93c-.721-.002-1.354.478-1.546 1.174s.105 1.433.725 1.801c.62.368 1.41.276 1.928-.226l1.853.93c.215.108.476.057.636-.123l3.939-4.431 3.872 2.901c.208.156.498.139.686-.039l3.365-3.188v8.131H5.33V8.569h18.124v2.66l-3.771 3.572-3.904-2.927c-.222-.166-.534-.135-.718.072l-3.993 4.493-1.493-.746c.011-.064.018-.129.02-.193 0-.883-.716-1.599-1.599-1.599zm.533 1.599c0 .294-.239.533-.533.533s-.533-.239-.533-.533c0-.294.239-.533.533-.533s.533.239.533.533zm3.198 8.528h5.331v.533c0 .294-.239.533-.533.533h-4.264c-.294 0-.533-.239-.533-.533v-.533zm-10.661.534c0-.294.239-.533.533-.533h9.062v.533c0 .883.716 1.599 1.599 1.599h4.264c.883 0 1.599-.716 1.599-1.599v-.533h9.062c.294 0 .533.239.533.533v2.132c0 .294-.239.533-.533.533H1.598c-.294 0-.533-.239-.533-.533V24.56z" style="fill:var(--color3, #212121)"/>
    </symbol>
    <symbol id="icon-clock-1" viewBox="0 0 32 32">
      <path fill="#212121" d="M31.297 15.301C31.295 6.849 24.442-.002 15.989 0S.686 6.855.688 15.308c.001 6.658 4.307 12.551 10.649 14.576.061.019.124.029.187.029.121 0 .239-.032.342-.094.135-.08.236-.207.283-.356l3.865-12.25c1.057-.005 1.909-.866 1.903-1.923s-.866-1.909-1.923-1.903c-.284.001-.565.067-.82.191l-5.106-5.107c-.253-.245-.657-.238-.902.016-.239.247-.239.639 0 .886l5.103 5.109c-.392.799-.168 1.764.536 2.309l-3.683 11.673C3.844 25.783.118 17.71 2.799 10.432S13.553-.572 20.831 2.109s11.004 10.754 8.323 18.032c-1.31 3.556-4.001 6.431-7.462 7.973l-.398-1.874c-.073-.344-.411-.565-.756-.492-.109.023-.209.074-.292.148l-3.837 3.426c-.263.234-.287.637-.052.9.076.085.174.149.283.184l4.899 1.563c.335.108.694-.077.802-.412.034-.106.04-.219.017-.328l-.391-1.839c5.664-2.388 9.342-7.942 9.329-14.089zm-15.305-.637c.352 0 .638.286.638.638s-.286.638-.638.638c-.352 0-.638-.285-.638-.638s.285-.638.638-.638zm2.101 14.864 2.184-1.948.603 2.84-2.787-.892z" style="fill:var(--color3, #212121)"/>
      <path fill="#2196f3" d="M15.354 3.185V4.46c0 .352.285.638.638.638s.638-.285.638-.638V3.185c0-.352-.286-.638-.638-.638s-.638.286-.638.638zM3.876 14.664c-.352 0-.638.286-.638.638s.285.638.638.638h1.275c.352 0 .638-.285.638-.638s-.285-.638-.638-.638H3.876zM28.108 15.939c.352 0 .638-.285.638-.638s-.285-.638-.638-.638h-1.275c-.352 0-.638.286-.638.638s.286.638.638.638h1.275z" style="fill:var(--color2, #2196f3)"/>
    </symbol>
    <symbol id="icon-antenna-1" viewBox="0 0 32 32">
      <path fill="#212121" d="m30.773 22.098-8.443-8.505.937-4.615c.242.094.499.144.758.146h.006c1.192.014 2.17-.941 2.184-2.133s-.941-2.17-2.133-2.184c-1.192-.014-2.17.941-2.184 2.133-.003.255.039.509.125.749l-4.96.605L8.972.161C8.873.06 8.737.002 8.595.001c-.14.001-.274.056-.373.155L6.709 1.66c-.208.208-.208.546 0 .754l.814.826C4.37 9.038 5.394 16.218 10.042 20.903c.043.041.092.074.146.098-.034.18-.051.364-.052.547v6.187h-6.4c-1.472.002-2.665 1.195-2.667 2.667v1.067c0 .295.239.533.533.533h24.533c.295 0 .533-.239.533-.533v-1.067c-.002-1.472-1.195-2.665-2.667-2.667h-6.4v-2.742c1.003.21 2.024.317 3.049.32 2.458-.003 4.877-.615 7.04-1.783l.818.823c.099.101.235.159.377.16.14-.001.274-.056.373-.155l1.513-1.504c.208-.208.208-.546 0-.754zM23.28 6.233c.418-.415 1.093-.414 1.508.004s.414 1.093-.004 1.508c-.2.199-.47.31-.752.31h-.003c-.589-.003-1.064-.483-1.061-1.072.002-.282.115-.552.314-.751h-.002zm-1.256 3.505-.598 2.946-1.175-1.182 1.774-1.763zm-.605-.902-1.92 1.909-1.485-1.493 3.405-.415zM24.004 28.8c.884 0 1.6.716 1.6 1.6v.533H2.137V30.4c0-.884.716-1.6 1.6-1.6h20.267zm-7.467-2.133v1.067h-5.333v-1.067h5.333zM11.204 25.6v-4.053c0-1.294 1.196-2.347 2.667-2.347s2.667 1.053 2.667 2.347V25.6h-5.333zm6.4-1.696v-2.357c0-1.882-1.675-3.413-3.733-3.413-1.331-.02-2.576.657-3.281 1.786C6.532 15.646 5.619 9.275 8.311 4.033l18.602 18.708c-2.872 1.461-6.165 1.873-9.309 1.163zm11.289-.684L7.836 2.039l.755-.752 7.935 7.98c.004 0 .006.007.01.01l13.115 13.191-.757.752z" style="fill:var(--color3, #212121)"/>
      <path fill="#2196f3" d="M13.876 20.267h-.005c-.884-.001-1.601.714-1.602 1.598s.714 1.601 1.598 1.602h.005c.884.001 1.601-.714 1.602-1.598s-.714-1.601-1.598-1.602zm.373 1.978c-.1.1-.236.156-.378.155-.295-.002-.532-.242-.531-.536.001-.141.057-.276.157-.375s.233-.154.373-.155c.295.002.532.241.53.536-.001.141-.057.276-.157.375h.005z" style="fill:var(--color2, #2196f3)"/>
    </symbol>
    <symbol id="icon-envelope" viewBox="0 0 32 32">
      <path fill="#757575" d="M29 4H3C1.346 4 0 5.346 0 7v18c0 1.654 1.346 3 3 3h26c1.654 0 3-1.346 3-3V7c0-1.654-1.346-3-3-3zm0 2c.136 0 .265.028.383.077L16 17.676 2.617 6.077C2.735 6.028 2.864 6 3 6h26zm0 20H3c-.552 0-1-.448-1-1V8.19l13.345 11.565c.188.163.422.244.655.244s.467-.081.655-.244L30 8.19V25c0 .552-.448 1-1 1z" style="fill:var(--color4, #757575)"/>
    </symbol>
    <symbol id="icon-smartphone" viewBox="0 0 32 32">
      <path fill="#757575" d="M23 0H9C7.346 0 6 1.346 6 3v26c0 1.654 1.346 3 3 3h14c1.654 0 3-1.346 3-3V3c0-1.654-1.346-3-3-3zM9 2h14c.552 0 1 .448 1 1v21H8V3c0-.552.448-1 1-1zm14 28H9c-.552 0-1-.448-1-1v-3h16v3c0 .552-.448 1-1 1z" style="fill:var(--color4, #757575)"/>
      <path fill="#757575" d="M10.707 27.478c.391.365.391.956 0 1.321s-1.024.365-1.414 0c-.391-.365-.391-.956 0-1.321s1.024-.365 1.414 0z" style="fill:var(--color4, #757575)"/>
    </symbol>
  </defs>
</svg>
